<svg fill="none" height="48" viewBox="0 0 48 48" width="48" xmlns="http://www.w3.org/2000/svg">
  <path d="M39.5563 34.1455V13.8546C39.5563 15.708 36.8773 17.3437 32.7927 18.3189C30.2914 18.916 27.263 19.2655 24 19.2655C20.737 19.2655 17.7086 18.916 15.2073 18.3189C11.1227 17.3437 8.44365 15.708 8.44365 13.8546V34.1455C8.44365 35.9988 11.1227 37.6346 15.2073 38.6098C17.7086 39.2069 20.737 39.5564 24 39.5564C27.1288 39.5564 30.2914 39.2069 32.7927 38.6098C36.8773 37.6346 39.5563 35.9988 39.5563 34.1455Z" fill="#2196F3"/>
  <path clip-rule="evenodd" d="M10.4485 13.8519C10.4749 13.9271 10.6203 14.246 11.379 14.7361C12.298 15.3298 13.7492 15.9145 15.6717 16.3735C18.0007 16.9296 20.8712 17.2655 24 17.2655C27.1288 17.2655 29.9993 16.9296 32.3283 16.3735C34.2508 15.9145 35.702 15.3298 36.621 14.7361C37.3796 14.246 37.5251 13.9271 37.5515 13.8519C37.5287 13.7876 37.4333 13.5973 37.0635 13.2931C36.5266 12.8516 35.6288 12.3647 34.343 11.9175C31.79 11.0295 28.1333 10.4437 24 10.4437C19.8667 10.4437 16.2099 11.0295 13.657 11.9175C12.3712 12.3647 11.4734 12.8516 10.9365 13.2931C10.5667 13.5973 10.4713 13.7876 10.4485 13.8519ZM24 8.44365C27.5663 8.44365 31.5262 8.95692 34.7114 10.0589C36.2991 10.6089 37.7366 11.3354 38.7873 12.2949C39.8488 13.2649 40.5563 14.4989 40.5563 15.8546V32.1455C40.5563 33.5011 39.8488 34.7351 38.7873 35.7051C37.7366 36.6646 36.2991 37.3911 34.7114 37.9411C31.5262 39.0431 27.5663 39.5564 24 39.5564C20.4337 39.5564 16.4738 39.0431 13.2886 37.9411C11.7009 37.3911 10.2634 36.6646 9.21267 35.7051C8.15117 34.7351 7.44365 33.5011 7.44365 32.1455V15.8546C7.44365 14.4989 8.15117 13.2649 9.21267 12.2949C10.2634 11.3354 11.7009 10.6089 13.2886 10.0589C16.4738 8.95692 20.4337 8.44365 24 8.44365Z" fill="#2196F3" fill-rule="evenodd"/>
</svg>
